<svg width="25" height="24" viewBox="0 0 25 24" fill="none" xmlns="http://www.w3.org/2000/svg">
<path d="M8.65738 22.6895H15.4807C15.1103 22.1868 14.7186 21.5738 14.3552 20.9374C13.7743 19.9201 13.2594 18.8334 13.0143 18.0331L12.9789 17.9177L12.9788 17.9177C12.9906 17.9567 13.0201 18.0539 12.9783 17.9179C12.6125 16.7289 12.4686 16.2611 13.4211 15.4715L13.6958 15.2437L13.972 15.4715C14.3441 15.7785 14.5836 16.0686 14.8306 16.3677C15.1416 16.7445 15.466 17.1375 16.114 17.5768C16.5435 17.868 17.0494 18.0885 17.609 18.2023C18.1261 18.3075 18.6886 18.3214 19.2787 18.216C20.7416 17.9545 21.8152 17.2034 22.4752 16.239C22.9278 15.5777 23.1873 14.8149 23.2451 14.0411C23.3028 13.2682 23.16 12.4858 22.8082 11.7845C22.3174 10.8062 21.4172 9.97865 20.0835 9.54224C19.1232 9.228 18.1177 9.1759 17.191 9.40206C16.3232 9.61384 15.5257 10.072 14.9035 10.7901C14.8194 10.8872 14.7709 10.9534 14.7303 11.0087C14.5509 11.2536 14.4589 11.3791 14.0559 11.5153L13.1373 11.8257L13.5119 10.9113C13.6474 10.5805 13.9665 10.2446 14.3627 9.82768C15.2955 8.84612 16.7239 7.34296 16.3972 4.97959C16.2179 3.68224 15.6855 2.69915 14.967 2.02529C14.1609 1.26933 13.1157 0.895811 12.0708 0.900776H12.0673C11.0223 0.895811 9.97721 1.26933 9.17109 2.02529C8.45252 2.69915 7.92015 3.68224 7.74083 4.97959C7.41419 7.34296 8.84259 8.84612 9.77534 9.82768C10.1715 10.2446 10.4907 10.5805 10.6262 10.9113L11.0008 11.8257L10.0821 11.5153C9.67912 11.3791 9.58716 11.2536 9.40775 11.0087C9.36719 10.9534 9.3187 10.8872 9.23458 10.7901C8.61236 10.072 7.81484 9.61384 6.94706 9.40206C6.02038 9.1759 5.01481 9.228 4.05452 9.54224C2.72085 9.97865 1.82069 10.8062 1.3299 11.7845C0.978067 12.4858 0.835239 13.2682 0.892986 14.0411C0.950794 14.8149 1.21022 15.5777 1.66281 16.239C2.32284 17.2034 3.39646 17.9545 4.8594 18.216C5.44946 18.3214 6.01192 18.3075 6.52904 18.2023C7.08864 18.0885 7.59455 17.868 8.02404 17.5768C8.67201 17.1375 8.99643 16.7445 9.30748 16.3677C9.55443 16.0686 9.79392 15.7785 10.1661 15.4715L10.4422 15.2437L10.717 15.4715C11.6694 16.2611 11.5255 16.7289 11.1597 17.9179C11.1179 18.0539 11.1475 17.9567 11.1593 17.9177L11.1592 17.9177L11.1238 18.0331C10.8787 18.8334 10.3638 19.9201 9.78289 20.9374C9.41948 21.5738 9.02772 22.1868 8.65738 22.6895ZM12.069 23.5938H6.65464L7.39836 22.8237C7.87039 22.335 8.47703 21.4419 9.02535 20.4817C9.57367 19.5215 10.0572 18.5038 10.2836 17.7647L10.3199 17.646L10.3196 17.6459C10.3092 17.6794 10.3019 17.7033 10.3196 17.6459C10.5001 17.0591 10.597 16.7441 10.4178 16.4497C10.2571 16.6136 10.1194 16.7805 9.97894 16.9506C9.62799 17.3757 9.26196 17.819 8.50956 18.3292C7.98682 18.6836 7.37352 18.9515 6.69777 19.0889C6.08097 19.2144 5.41164 19.2313 4.71133 19.1061C2.99622 18.7996 1.72935 17.907 0.943144 16.7582C0.397424 15.9608 0.084617 15.0412 0.01492 14.1082C-0.0548389 13.1745 0.119537 12.2258 0.548254 11.3712C1.13935 10.193 2.21125 9.20029 3.78938 8.68389C4.90344 8.31933 6.07178 8.25932 7.15022 8.52252C7.33554 8.56774 7.51822 8.62249 7.69759 8.68674C7.08523 7.70935 6.64724 6.46517 6.86965 4.85596C7.07997 3.33431 7.71666 2.16974 8.57883 1.36122C9.55366 0.447044 10.8121 -0.00507944 12.0673 4.55787e-05L12.0708 4.3039e-05C13.326 -0.00507944 14.5844 0.447044 15.5592 1.36122C16.4214 2.16974 17.0581 3.33431 17.2684 4.85596C17.4908 6.46517 17.0528 7.70935 16.4405 8.68674C16.6198 8.62249 16.8025 8.56774 16.9878 8.52252C18.0663 8.25932 19.2346 8.31933 20.3487 8.68389C21.9268 9.20029 22.9987 10.193 23.5898 11.3712C24.0185 12.2258 24.1929 13.1745 24.1231 14.1082C24.0534 15.0412 23.7406 15.9608 23.1949 16.7582C22.4087 17.907 21.1418 18.7996 19.4267 19.1061C18.7264 19.2313 18.0571 19.2144 17.4403 19.0889C16.7645 18.9515 16.1512 18.6836 15.6285 18.3292C14.8761 17.819 14.5101 17.3757 14.1591 16.9506C14.0187 16.7805 13.881 16.6136 13.7202 16.4497C13.5411 16.7441 13.638 17.0591 13.8185 17.6459C13.8362 17.7033 13.8288 17.6794 13.8185 17.6459L13.8181 17.646L13.8544 17.7647C14.0808 18.5038 14.5644 19.5215 15.1127 20.4817C15.661 21.4419 16.2677 22.335 16.7397 22.8237L17.4834 23.5938H12.069ZM12.9789 17.9177C12.9722 17.8959 12.974 17.9021 12.9788 17.9177L12.9789 17.9177ZM13.8185 17.6459C13.8039 17.5988 13.7835 17.5327 13.8181 17.646L13.8185 17.6459ZM11.1593 17.9177C11.164 17.9021 11.1659 17.8959 11.1592 17.9177L11.1593 17.9177ZM10.3199 17.646C10.3546 17.5327 10.3341 17.5988 10.3196 17.6459L10.3199 17.646Z" fill="black"/>
</svg>
