<svg width="25" height="23" viewBox="0 0 25 23" fill="none" xmlns="http://www.w3.org/2000/svg">
<path fill-rule="evenodd" clip-rule="evenodd" d="M7.76435 23H12.42H17.0756C16.0134 21.9563 14.3822 19.2474 13.8782 17.6859C13.5294 16.6053 13.3618 16.2084 14.1582 15.5818C15.0329 16.2665 15.2058 16.9203 16.4809 17.7408C17.4562 18.3684 18.7594 18.7027 20.1993 18.4584C25.8632 17.4978 26.5453 10.465 21.1214 8.78057C18.9608 8.10959 16.598 8.53116 15.0961 10.1761C14.7733 10.5297 14.8053 10.6489 14.395 10.7805C14.8105 9.81781 18.0283 8.10144 17.5079 4.5282C17.0653 1.48909 14.7392 -0.0104075 12.42 5.43636e-05C10.1007 -0.0104075 7.7747 1.48909 7.33207 4.5282C6.81168 8.10144 10.0295 9.81781 10.445 10.7805C10.0347 10.6489 10.0667 10.5297 9.7439 10.1761C8.24198 8.53116 5.87917 8.10959 3.71858 8.78057C-1.70534 10.465 -1.0232 17.4978 4.64074 18.4584C6.08056 18.7027 7.38379 18.3684 8.35906 17.7408C9.63415 16.9203 9.80707 16.2665 10.6818 15.5818C11.4781 16.2084 11.3106 16.6053 10.9618 17.6859C10.4578 19.2474 8.82655 21.9563 7.76435 23Z" fill="black"/>
</svg>
